<svg 
    baseProfile="full"

    height="678"
    version="1.1"
    width="1148" 
    xmlns="http://www.w3.org/2000/svg" 
    style="overflow: hidden; position: relative;">
    
    <desc style="-webkit-tap-highlight-color: rgba(0, 0, 0, 0);">
    Created with Raphaël 2.0.1</desc>
    
    <defs style="-webkit-tap-highlight-color: rgba(0, 0, 0, 0);"></defs><rect x="0" y="0" width="1148" height="678" r="0" rx="0" ry="0" fill="#722542" stroke="none" style="-webkit-tap-highlight-color: rgba(0, 0, 0, 0);"></rect><ellipse cx="297" cy="170" rx="74" ry="104.33999999999999" fill="#d89e8c" stroke="none" transform="matrix(1,0,0,1,0,0)" stroke-width="6" opacity="0.18" style="-webkit-tap-highlight-color: rgba(0, 0, 0, 0); opacity: 0.18;"></ellipse><ellipse cx="543" cy="408" rx="74" ry="104.33999999999999" fill="#d89e8c" stroke="none" transform="matrix(0.901,0.4339,-0.4339,0.901,230.7985,-195.1942)" stroke-width="6" opacity="0.18" style="-webkit-tap-highlight-color: rgba(0, 0, 0, 0); opacity: 0.18;"></ellipse><ellipse cx="458" cy="243" rx="67" ry="94.47" fill="#d89e8c" stroke="none" transform="matrix(0.6235,0.7818,-0.7818,0.6235,362.4267,-266.5868)" stroke-width="6" opacity="0.18" style="-webkit-tap-highlight-color: rgba(0, 0, 0, 0); opacity: 0.18;"></ellipse><ellipse cx="803" cy="659" rx="102" ry="143.82" fill="#d89e8c" stroke="none" transform="matrix(0.2225,0.9749,-0.9749,0.2225,1266.7932,-270.5084)" stroke-width="6" opacity="0.18" style="-webkit-tap-highlight-color: rgba(0, 0, 0, 0); opacity: 0.18;"></ellipse><ellipse cx="815" cy="252" rx="95" ry="133.95" fill="#d89e8c" stroke="none" transform="matrix(-0.2225,0.9749,-0.9749,-0.2225,1242.0364,-486.491)" stroke-width="6" opacity="0.18" style="-webkit-tap-highlight-color: rgba(0, 0, 0, 0); opacity: 0.18;"></ellipse><ellipse cx="484" cy="8" rx="105" ry="148.04999999999998" fill="#d89e8c" stroke="none" transform="matrix(-0.6235,0.7818,-0.7818,-0.6235,792.0237,-365.4185)" stroke-width="6" opacity="0.18" style="-webkit-tap-highlight-color: rgba(0, 0, 0, 0); opacity: 0.18;"></ellipse><ellipse cx="729" cy="646" rx="47" ry="66.27" fill="#d89e8c" stroke="none" transform="matrix(-0.901,0.4339,-0.4339,-0.901,1666.0952,911.7246)" stroke-width="6" opacity="0.18" style="-webkit-tap-highlight-color: rgba(0, 0, 0, 0); opacity: 0.18;"></ellipse><ellipse cx="583" cy="163" rx="45" ry="63.449999999999996" fill="#d89e8c" stroke="none" transform="matrix(-1,0,0,-1,1166,326)" stroke-width="6" opacity="0.18" style="-webkit-tap-highlight-color: rgba(0, 0, 0, 0); opacity: 0.18;"></ellipse><ellipse cx="829" cy="100" rx="70" ry="98.69999999999999" fill="#d89e8c" stroke="none" transform="matrix(-0.901,-0.4339,0.4339,-0.901,1532.5148,549.7865)" stroke-width="6" opacity="0.18" style="-webkit-tap-highlight-color: rgba(0, 0, 0, 0); opacity: 0.18;"></ellipse><ellipse cx="845" cy="557" rx="83" ry="117.02999999999999" fill="#d89e8c" stroke="none" transform="matrix(-0.6235,-0.7818,0.7818,-0.6235,936.3687,1564.9314)" stroke-width="6" opacity="0.18" style="-webkit-tap-highlight-color: rgba(0, 0, 0, 0); opacity: 0.18;"></ellipse><ellipse cx="572" cy="489" rx="85" ry="119.85" fill="#d89e8c" stroke="none" transform="matrix(-0.2225,-0.9749,0.9749,-0.2225,222.5422,1155.4715)" stroke-width="6" opacity="0.18" style="-webkit-tap-highlight-color: rgba(0, 0, 0, 0); opacity: 0.18;"></ellipse><ellipse cx="558" cy="207" rx="107" ry="150.87" fill="#d89e8c" stroke="none" transform="matrix(0.2225,-0.9749,0.9749,0.2225,232.0232,704.9479)" stroke-width="6" opacity="0.18" style="-webkit-tap-highlight-color: rgba(0, 0, 0, 0); opacity: 0.18;"></ellipse><ellipse cx="764" cy="527" rx="84" ry="118.44" fill="#d89e8c" stroke="none" transform="matrix(0.6235,-0.7818,0.7818,0.6235,-124.3714,795.7401)" stroke-width="6" opacity="0.18" style="-webkit-tap-highlight-color: rgba(0, 0, 0, 0); opacity: 0.18;"></ellipse><ellipse cx="520" cy="37" rx="72" ry="101.52" fill="#d89e8c" stroke="none" transform="matrix(0.901,-0.4339,0.4339,0.901,35.4425,229.2837)" stroke-width="6" opacity="0.18" style="-webkit-tap-highlight-color: rgba(0, 0, 0, 0); opacity: 0.18;"></ellipse>
</svg>